<svg xmlns="http://www.w3.org/2000/svg" width="14" height="9" viewBox="0 0 14 9">
  <defs>
    <style>
      .cls-1 {
        fill: #fff;
        fill-rule: evenodd;
      }
    </style>
  </defs>
  <path id="behance_icon" data-name="behance icon" class="cls-1" d="M123.646,83.273h-3.508v-0.9h3.509v0.9h0ZM117.8,86.965a2.442,2.442,0,0,1,.339,1.319,2.688,2.688,0,0,1-.387,1.436,2.462,2.462,0,0,1-.616.707,2.349,2.349,0,0,1-.984.452,5.876,5.876,0,0,1-1.23.121H111V82h4.208a2.636,2.636,0,0,1,2.257.958,2.347,2.347,0,0,1,.4,1.374A1.829,1.829,0,0,1,116.8,86.17,1.948,1.948,0,0,1,117.8,86.965Zm-4.793-1.417h1.844a1.7,1.7,0,0,0,.921-0.223,0.86,0.86,0,0,0,.354-0.791,0.809,0.809,0,0,0-.468-0.83,3.193,3.193,0,0,0-1.029-.141h-1.622v1.986Zm3.3,2.607a0.968,0.968,0,0,0-.554-0.964,2.126,2.126,0,0,0-.871-0.153h-1.871v2.4h1.842a1.983,1.983,0,0,0,.882-0.158A1.143,1.143,0,0,0,116.305,88.155Zm8.643-1.464A8.614,8.614,0,0,1,125,87.97h-4.544a1.557,1.557,0,0,0,.652,1.361,1.607,1.607,0,0,0,.9.242,1.342,1.342,0,0,0,.905-0.3,1.393,1.393,0,0,0,.335-0.442h1.666a2.117,2.117,0,0,1-.6,1.165,2.98,2.98,0,0,1-2.347.941,3.34,3.34,0,0,1-2.2-.794,3.188,3.188,0,0,1-.951-2.582,3.557,3.557,0,0,1,.859-2.57,2.958,2.958,0,0,1,2.232-.894,3.463,3.463,0,0,1,1.468.3,2.549,2.549,0,0,1,1.077.955A3.233,3.233,0,0,1,124.948,86.691Zm-1.639.168a1.434,1.434,0,0,0-.436-1.019,1.4,1.4,0,0,0-.968-0.349,1.269,1.269,0,0,0-.973.37,1.761,1.761,0,0,0-.435,1h2.812Z" transform="translate(-111 -82)"/>
</svg>
