<svg xmlns="http://www.w3.org/2000/svg" width="14" height="14" viewBox="0 0 14 14">
  <defs>
    <style>
      .cls-1 {
        fill: #fff;
        fill-rule: evenodd;
      }
    </style>
  </defs>
  <path id="dribbble_icon" data-name="dribbble icon" class="cls-1" d="M150,80a7,7,0,1,0,7,7A7,7,0,0,0,150,80Zm4.289,3.629a5.418,5.418,0,0,1,1.164,3.114,10.79,10.79,0,0,0-2.233-.249h0a9.045,9.045,0,0,0-1.582.139q-0.18-.443-0.366-0.851A8.511,8.511,0,0,0,154.289,83.629ZM150,81.539a5.422,5.422,0,0,1,3.405,1.2,7.1,7.1,0,0,1-2.682,1.916,19.177,19.177,0,0,0-1.884-2.986A5.333,5.333,0,0,1,150,81.539Zm-2.413.569a16.644,16.644,0,0,1,1.949,2.97,15.806,15.806,0,0,1-4.313.606h-0.086c-0.169,0-.314,0-0.436-0.006A5.478,5.478,0,0,1,147.587,82.108ZM144.538,87c0-.025,0-0.051,0-0.079,0.156,0.006.356,0.011,0.6,0.011h0a17.18,17.18,0,0,0,4.957-.712q0.159,0.347.314,0.723a8.635,8.635,0,0,0-3.074,1.814,9.281,9.281,0,0,0-1.506,1.757A5.428,5.428,0,0,1,144.538,87ZM150,92.461a5.426,5.426,0,0,1-3.245-1.076,7.929,7.929,0,0,1,1.267-1.56,7.431,7.431,0,0,1,2.838-1.718,26.837,26.837,0,0,1,1.078,4A5.425,5.425,0,0,1,150,92.461Zm3.091-.97a28.321,28.321,0,0,0-1.008-3.669,7.9,7.9,0,0,1,1.12-.079h0.016a9.7,9.7,0,0,1,2.143.257A5.458,5.458,0,0,1,153.091,91.491Z" transform="translate(-143 -80)"/>
</svg>
