<svg xmlns="http://www.w3.org/2000/svg" width="53" height="101" viewBox="0 0 53 101">
  <defs>
    <style>
      .cls-1 {
        fill: #363636;
        fill-rule: evenodd;
      }
    </style>
  </defs>
  <path id="guitar" class="cls-1" d="M279.782,5588.47c-2.137-2.17-1.578-3.79-.113-7.24,0.972-2.29,2.073-4.89,1.883-7.99-0.247-4.02-3.444-11.33-13.579-12.02L268,5542h5a2.05,2.05,0,0,0,2-2v-10a2.05,2.05,0,0,0-2-2h-5l-0.027-1.07a1.925,1.925,0,0,0-1.926-1.93h-7.094a1.925,1.925,0,0,0-1.926,1.93L257,5528h-5a2.05,2.05,0,0,0-2,2v10a2.05,2.05,0,0,0,2,2h5l0.027,19.21c-10.136.68-13.333,8.01-13.579,12.03-0.19,3.1.911,5.7,1.882,7.99,1.466,3.45,2.024,5.07-.112,7.24-4.671,4.74-9.231,10.04-9.231,18.02,0,6.25,2.466,11.31,7.129,14.64,4.522,3.23,11.044,4.87,19.384,4.87s14.861-1.64,19.383-4.87c4.664-3.33,7.129-8.39,7.129-14.64C289.012,5598.51,284.452,5593.21,279.782,5588.47ZM268,5532h3v6h-3v-6Zm-5.5,55.87a3.51,3.51,0,1,1-3.491,3.51A3.508,3.508,0,0,1,262.5,5587.87ZM264,5529s0.031,55.03,0,55c-0.563-.56-2.318-0.34-3,0-0.063.03,0-55,0-55h3Zm-10,3h3v6h-3v-6Zm8.5,90.13c-10.338,0-22.66-2.71-22.66-15.64,0-6.52,3.839-10.96,8.116-15.3,4.046-4.1,2.312-8.19.918-11.48-0.843-1.99-1.716-4.04-1.581-6.24,0.02-.33.578-7.64,9.734-8.38v21.38a7.343,7.343,0,1,0,10.946,0v-21.38c9.15,0.74,9.714,8.05,9.734,8.38,0.135,2.2-.738,4.25-1.581,6.24-1.394,3.29-3.128,7.38.918,11.48,4.277,4.34,8.117,8.78,8.117,15.3C285.16,5619.42,272.838,5622.13,262.5,5622.13ZM270,5609H256a2,2,0,0,1,0-4h14A2,2,0,0,1,270,5609Z" transform="translate(-236 -5525)"/>
</svg>
