<svg xmlns="http://www.w3.org/2000/svg" width="12.093" height="12.063" viewBox="0 0 12.093 12.063">
  <defs>
    <style>
      .cls-1 {
        fill: #fff;
        fill-rule: evenodd;
      }
    </style>
  </defs>
  <path id="instagram_icon" data-name="instagram icon" class="cls-1" d="M221.569,81.379a1.492,1.492,0,0,0-1.093-.456H211.5a1.556,1.556,0,0,0-1.549,1.548v8.977A1.556,1.556,0,0,0,211.5,93h8.976a1.556,1.556,0,0,0,1.549-1.548V82.472A1.49,1.49,0,0,0,221.569,81.379Zm-7.283,3.895a2.478,2.478,0,0,1,3.427,0,2.3,2.3,0,0,1,0,3.324,2.478,2.478,0,0,1-3.427,0A2.3,2.3,0,0,1,214.286,85.274Zm6.371,5.851a0.458,0.458,0,0,1-.141.342,0.471,0.471,0,0,1-.339.138h-8.4a0.469,0.469,0,0,1-.479-0.48V86.033H212.4a3.376,3.376,0,0,0-.157,1.03,3.452,3.452,0,0,0,1.1,2.575A3.675,3.675,0,0,0,216,90.7a3.778,3.778,0,0,0,1.886-.487,3.659,3.659,0,0,0,1.368-1.325,3.477,3.477,0,0,0,.5-1.827,3.376,3.376,0,0,0-.157-1.03h1.061v5.093h0Zm0-7.019a0.536,0.536,0,0,1-.542.542h-1.368a0.536,0.536,0,0,1-.542-0.542v-1.3a0.525,0.525,0,0,1,.157-0.381,0.518,0.518,0,0,1,.385-0.161h1.368a0.518,0.518,0,0,1,.385.161,0.525,0.525,0,0,1,.157.381v1.3Z" transform="translate(-209.938 -80.938)"/>
</svg>
