<svg xmlns="http://www.w3.org/2000/svg" width="98.063" height="80.22" viewBox="0 0 98.063 80.22">
  <defs>
    <style>
      .cls-1 {
        fill: #363636;
        fill-rule: evenodd;
      }
    </style>
  </defs>
  <path id="palette" class="cls-1" d="M542.969,5607.81a5.8,5.8,0,0,1-5.689-8.39,10.628,10.628,0,0,1,4.108-4.74,10.8,10.8,0,0,1,5.746-1.8,6.2,6.2,0,0,1,5.39,2.64c2.054,3.17.381,7.78-3.809,10.49A10.8,10.8,0,0,1,542.969,5607.81Zm4.165-11.1a6.97,6.97,0,0,0-3.666,1.18,6.9,6.9,0,0,0-2.647,2.99,2.029,2.029,0,0,0,2.148,3.1,6.9,6.9,0,0,0,3.666-1.19c2.507-1.62,3.42-4.04,2.671-5.2A2.506,2.506,0,0,0,547.134,5596.71Zm-30.73-30.69a5.882,5.882,0,0,1-1.99-.35,5.782,5.782,0,0,1,1.991-11.21,5.667,5.667,0,0,1,1.991.36A5.776,5.776,0,0,1,516.4,5566.02Zm0-7.73a1.952,1.952,0,1,0,.671.12A1.954,1.954,0,0,0,516.405,5558.29Zm12.65,1.62a5.811,5.811,0,0,1-5.246-3.36,5.722,5.722,0,0,1-.183-4.41,5.8,5.8,0,0,1,5.43-3.79,5.651,5.651,0,0,1,1.99.35A5.782,5.782,0,0,1,529.055,5559.91Zm0-7.74a1.968,1.968,0,0,0-1.833,1.28,1.955,1.955,0,0,0,1.832,2.63,1.955,1.955,0,0,0,.672-3.79A1.943,1.943,0,0,0,529.056,5552.17Zm14.189,8.55a5.887,5.887,0,0,1-1.991-.35,5.782,5.782,0,0,1,1.991-11.21,5.663,5.663,0,0,1,1.991.36,5.77,5.77,0,0,1,3.438,7.41A5.8,5.8,0,0,1,543.245,5560.72Zm0-7.73a1.95,1.95,0,0,0-1.831,1.28,1.951,1.951,0,0,0,1.831,2.62,1.95,1.95,0,0,0,1.831-1.28A1.951,1.951,0,0,0,543.245,5552.99Zm12.649,13.52a5.652,5.652,0,0,1-1.989-.36,5.776,5.776,0,0,1,1.991-11.2,5.882,5.882,0,0,1,1.99.35A5.782,5.782,0,0,1,555.894,5566.51Zm0-7.73a1.949,1.949,0,0,0-.672,3.78,1.933,1.933,0,0,0,.67.12A1.95,1.95,0,0,0,555.9,5558.78Zm9.744,18.14a5.667,5.667,0,0,1-1.991-.36,5.769,5.769,0,0,1-3.437-7.41,5.8,5.8,0,0,1,5.429-3.79,5.651,5.651,0,0,1,1.99.35A5.782,5.782,0,0,1,565.64,5576.92Zm0-7.74a1.957,1.957,0,0,0-1.771,2.78,1.955,1.955,0,0,0,1.77,1.13,1.955,1.955,0,0,0,.672-3.79A1.935,1.935,0,0,0,565.641,5569.18Zm34.3-29.22a0.016,0.016,0,0,1,0-.01h0a2.082,2.082,0,0,0-.222-0.55,1.914,1.914,0,0,0-2.628-.65c-0.872.52-20.8,12.65-16.621,27.11-0.588.66-1.467,1.71-2.523,3.1-3.078-9.07-10.184-16.69-20.393-21.73a55.532,55.532,0,0,0-23.787-6.04,36.8,36.8,0,0,0-19.059,4.71c-7.087,4.18-11.342,10.76-11.675,18.06-0.715,15.64,11.953,19.85,20.336,22.63,1.638,0.54,3.185,1.06,4.421,1.58,1.56,0.67,2.471,1.51,2.709,2.52,0.407,1.72-1.01,3.91-1.637,4.67-4.029,4.04-3.962,10.12.178,14.8,3.28,3.71,8.459,5.82,14.257,5.82h0.392c6.278-.11,13.041-2.63,19.7-7.33a64.056,64.056,0,0,0,.21,8.31,1.926,1.926,0,0,0,1.155,1.59,1.971,1.971,0,0,0,.752.15,1.89,1.89,0,0,0,1.2-.42,68.239,68.239,0,0,0,21.78-31.57,69.543,69.543,0,0,0,3.481-16.01C605.222,5563.68,600.166,5540.95,599.938,5539.96Zm-36.149,63.59-0.373.3c-6.761,5.33-13.605,8.2-19.793,8.3-4.837.08-9.105-1.57-11.716-4.52-2.837-3.22-2.951-6.99-.29-9.61,0.037-.04.072-0.08,0.106-0.12,0.354-.41,3.425-4.12,2.5-8.07-0.527-2.27-2.189-4.01-4.94-5.18-1.381-.59-3-1.12-4.714-1.69-8.154-2.71-18.3-6.08-17.718-18.83,0.277-6.07,3.755-11.37,9.794-14.93,10.348-6.1,25-5.56,39.2,1.46,10.32,5.1,17.129,13,19.259,22.31-1.212,1.85-2.5,4-3.767,6.43A70.54,70.54,0,0,0,563.789,5603.55Zm21.017-17.94a65.06,65.06,0,0,1-17.619,27.23,65.02,65.02,0,0,1,7.492-31.55c0.883-1.7,1.782-3.26,2.656-4.67l9.008,3.84C585.928,5582.07,585.423,5583.8,584.806,5585.61Zm2.4-8.94-7.737-3.3a59.033,59.033,0,0,1,3.667-4.75l4.964,2.12A59.163,59.163,0,0,1,587.211,5576.67Zm2.811-9.27-5.844-2.5c-2.687-9.1,7.681-17.8,12.52-21.28C597.549,5549.52,598.472,5563.04,590.022,5567.4Z" transform="translate(-503 -5538.47)"/>
</svg>
