<svg xmlns="http://www.w3.org/2000/svg" width="95.97" height="98" viewBox="0 0 95.97 98">
  <defs>
    <style>
      .cls-1 {
        fill: #363636;
        fill-rule: evenodd;
      }
    </style>
  </defs>
  <path id="puzzle" class="cls-1" d="M1184,5549.64c0-3.33-2.67-6.64-6-6.64h-32c-1.14,0-2,1.86-2,3v10c0,0.71,1,.74,1.6,1.12a2.12,2.12,0,0,0,2,.11,6.588,6.588,0,0,1,2.9-.66,6.665,6.665,0,1,1,0,13.33,6.588,6.588,0,0,1-2.9-.66,2.066,2.066,0,0,0-2,.11c-0.6.37-1.6,0.94-1.6,1.65v8h-4a14.785,14.785,0,0,0-.11-1.98,10.805,10.805,0,0,0-21.61,0,7.093,7.093,0,0,0,.72,1.98h-7a1.956,1.956,0,0,0-2,2v31c0,3.32,2.12,6,5.45,6h62.5a6.047,6.047,0,0,0,6.05-6.03v-62.33ZM1114,5612v-29h7a2.569,2.569,0,0,0,1.95-1.1,2.028,2.028,0,0,0,.11-1.98,6.588,6.588,0,0,1-.66-2.9,6.685,6.685,0,0,1,13.37,0,6.588,6.588,0,0,1-.66,2.9,2.028,2.028,0,0,0,.11,1.98,2.262,2.262,0,0,0,1.78,1.1h7v5a5.012,5.012,0,0,0-1.1-.4h0a10.775,10.775,0,1,0,0,21.55h0a4.489,4.489,0,0,0,1.1-.15v5h-28A2.06,2.06,0,0,1,1114,5612Zm64,2h-30v-8c0-.71.4-1.13-0.2-1.51a2.109,2.109,0,0,0-1.24-.31,2.252,2.252,0,0,0-.76.2,6.556,6.556,0,0,1-2.9.66,6.665,6.665,0,1,1,0-13.33,6.556,6.556,0,0,1,2.9.66,2.008,2.008,0,0,0,1.02.2,2.055,2.055,0,0,0,.98-0.31c0.6-.38.2-0.55,0.2-1.26v-8h6a10.058,10.058,0,0,0-.49,1.59h0v0.01a10.81,10.81,0,0,0,21.62,0v-0.01a9.305,9.305,0,0,0-.13-1.59h5v29S1179.62,5614,1178,5614Zm2-35h-8a1.546,1.546,0,0,0-1.55.71,2.075,2.075,0,0,0-.11,1.99,6.588,6.588,0,0,1,.66,2.9,6.685,6.685,0,1,1-12.71-2.9,1.943,1.943,0,0,0,.21-1,1.968,1.968,0,0,0-.32-0.99c-0.37-.6-1.47-0.71-2.18-0.71h-8v-5a23.144,23.144,0,0,0,2.5.01,10.775,10.775,0,1,0,0-21.55,25.384,25.384,0,0,0-2.5-.46v-5h30a2.06,2.06,0,0,1,2,2v30Zm-75.38-7.67a2.035,2.035,0,0,1-.64-0.1,2.088,2.088,0,0,1-1.2-1.02l-14.13-27.8a6.016,6.016,0,0,1,2.67-8.1l27.87-14.09a2.059,2.059,0,0,1,2.77.91l3.14,6.17a11.792,11.792,0,0,1,1.49-.9,10.637,10.637,0,0,1,4.88-1.17,10.778,10.778,0,0,1,4.89,20.4,11.834,11.834,0,0,1-1.61.66l3.14,6.17a2.056,2.056,0,0,1-.9,2.77l-8.69,4.39a2.059,2.059,0,0,1-2.99-1.8,6.692,6.692,0,0,0-9.71-5.81,6.657,6.657,0,0,0-2.94,8.96,6.655,6.655,0,0,0,1.9,2.28,2.056,2.056,0,0,1-.32,3.47l-8.69,4.39A2.02,2.02,0,0,1,1104.62,5571.33Zm14.6-46.51-26.04,13.16a1.909,1.909,0,0,0-.85,2.57l13.2,25.96,4.36-2.2a10.123,10.123,0,0,1-.91-1.48,10.772,10.772,0,0,1,4.75-14.49,10.916,10.916,0,0,1,4.88-1.16,10.768,10.768,0,0,1,9.65,5.9,10.1,10.1,0,0,1,.66,1.61l4.36-2.2-3.47-6.83a2.048,2.048,0,0,1,1.8-2.98,6.671,6.671,0,1,0-3.15-12.61,6.463,6.463,0,0,0-2.29,1.89,2.07,2.07,0,0,1-3.48-.31Z" transform="translate(-1088.03 -5520)"/>
</svg>
